<mxfile host="app.diagrams.net" modified="2021-12-13T14:16:06.332Z" agent="5.0 (Windows NT 10.0; Win64; x64) AppleWebKit/537.36 (KHTML, like Gecko) Chrome/96.0.4664.45 Safari/537.36" etag="08ClfThaSHc7LPD94J7L" version="15.9.4" type="github">
  <diagram id="C5RBs43oDa-KdzZeNtuy" name="Page-1">
    <mxGraphModel dx="1151" dy="1271" grid="1" gridSize="10" guides="1" tooltips="1" connect="1" arrows="1" fold="1" page="1" pageScale="1" pageWidth="827" pageHeight="1169" math="0" shadow="0">
      <root>
        <mxCell id="WIyWlLk6GJQsqaUBKTNV-0" />
        <mxCell id="WIyWlLk6GJQsqaUBKTNV-1" parent="WIyWlLk6GJQsqaUBKTNV-0" />
        <mxCell id="KkfzX8fpV3jdtidmpUQG-2" value="" style="edgeStyle=orthogonalEdgeStyle;rounded=0;orthogonalLoop=1;jettySize=auto;html=1;" edge="1" parent="WIyWlLk6GJQsqaUBKTNV-1" source="KkfzX8fpV3jdtidmpUQG-0" target="KkfzX8fpV3jdtidmpUQG-1">
          <mxGeometry relative="1" as="geometry" />
        </mxCell>
        <mxCell id="KkfzX8fpV3jdtidmpUQG-0" value="Start" style="rounded=1;whiteSpace=wrap;html=1;arcSize=50;" vertex="1" parent="WIyWlLk6GJQsqaUBKTNV-1">
          <mxGeometry x="240" y="60" width="120" height="50" as="geometry" />
        </mxCell>
        <mxCell id="KkfzX8fpV3jdtidmpUQG-5" value="" style="edgeStyle=orthogonalEdgeStyle;rounded=0;orthogonalLoop=1;jettySize=auto;html=1;" edge="1" parent="WIyWlLk6GJQsqaUBKTNV-1" source="KkfzX8fpV3jdtidmpUQG-1" target="KkfzX8fpV3jdtidmpUQG-4">
          <mxGeometry relative="1" as="geometry" />
        </mxCell>
        <mxCell id="KkfzX8fpV3jdtidmpUQG-1" value="Player presses input" style="rounded=0;whiteSpace=wrap;html=1;" vertex="1" parent="WIyWlLk6GJQsqaUBKTNV-1">
          <mxGeometry x="240" y="150" width="120" height="60" as="geometry" />
        </mxCell>
        <mxCell id="KkfzX8fpV3jdtidmpUQG-6" style="edgeStyle=orthogonalEdgeStyle;rounded=0;orthogonalLoop=1;jettySize=auto;html=1;" edge="1" parent="WIyWlLk6GJQsqaUBKTNV-1" source="KkfzX8fpV3jdtidmpUQG-4">
          <mxGeometry relative="1" as="geometry">
            <mxPoint x="300.0000000000001" y="130" as="targetPoint" />
            <Array as="points">
              <mxPoint x="390" y="285" />
              <mxPoint x="390" y="130" />
            </Array>
          </mxGeometry>
        </mxCell>
        <mxCell id="KkfzX8fpV3jdtidmpUQG-9" value="" style="edgeStyle=orthogonalEdgeStyle;rounded=0;orthogonalLoop=1;jettySize=auto;html=1;" edge="1" parent="WIyWlLk6GJQsqaUBKTNV-1" source="KkfzX8fpV3jdtidmpUQG-4" target="KkfzX8fpV3jdtidmpUQG-8">
          <mxGeometry relative="1" as="geometry" />
        </mxCell>
        <mxCell id="KkfzX8fpV3jdtidmpUQG-4" value="If grounded?" style="rhombus;whiteSpace=wrap;html=1;rounded=0;" vertex="1" parent="WIyWlLk6GJQsqaUBKTNV-1">
          <mxGeometry x="255" y="240" width="90" height="90" as="geometry" />
        </mxCell>
        <mxCell id="KkfzX8fpV3jdtidmpUQG-7" value="No" style="text;html=1;align=center;verticalAlign=middle;resizable=0;points=[];autosize=1;strokeColor=none;fillColor=none;" vertex="1" parent="WIyWlLk6GJQsqaUBKTNV-1">
          <mxGeometry x="395" y="190" width="30" height="20" as="geometry" />
        </mxCell>
        <mxCell id="KkfzX8fpV3jdtidmpUQG-12" value="" style="edgeStyle=orthogonalEdgeStyle;rounded=0;orthogonalLoop=1;jettySize=auto;html=1;" edge="1" parent="WIyWlLk6GJQsqaUBKTNV-1" source="KkfzX8fpV3jdtidmpUQG-8">
          <mxGeometry relative="1" as="geometry">
            <mxPoint x="300.0000000000001" y="470" as="targetPoint" />
          </mxGeometry>
        </mxCell>
        <mxCell id="KkfzX8fpV3jdtidmpUQG-8" value="Add velocity&amp;nbsp;" style="whiteSpace=wrap;html=1;rounded=0;" vertex="1" parent="WIyWlLk6GJQsqaUBKTNV-1">
          <mxGeometry x="240" y="370" width="120" height="60" as="geometry" />
        </mxCell>
        <mxCell id="KkfzX8fpV3jdtidmpUQG-10" value="Yes" style="text;html=1;align=center;verticalAlign=middle;resizable=0;points=[];autosize=1;strokeColor=none;fillColor=none;" vertex="1" parent="WIyWlLk6GJQsqaUBKTNV-1">
          <mxGeometry x="300" y="340" width="40" height="20" as="geometry" />
        </mxCell>
        <mxCell id="KkfzX8fpV3jdtidmpUQG-15" value="" style="edgeStyle=orthogonalEdgeStyle;rounded=0;orthogonalLoop=1;jettySize=auto;html=1;" edge="1" parent="WIyWlLk6GJQsqaUBKTNV-1" source="KkfzX8fpV3jdtidmpUQG-13" target="KkfzX8fpV3jdtidmpUQG-14">
          <mxGeometry relative="1" as="geometry" />
        </mxCell>
        <mxCell id="KkfzX8fpV3jdtidmpUQG-18" style="edgeStyle=orthogonalEdgeStyle;rounded=0;orthogonalLoop=1;jettySize=auto;html=1;exitX=1;exitY=0.5;exitDx=0;exitDy=0;" edge="1" parent="WIyWlLk6GJQsqaUBKTNV-1" source="KkfzX8fpV3jdtidmpUQG-13">
          <mxGeometry relative="1" as="geometry">
            <mxPoint x="300.0000000000001" y="450" as="targetPoint" />
            <Array as="points">
              <mxPoint x="360" y="510" />
              <mxPoint x="360" y="450" />
            </Array>
          </mxGeometry>
        </mxCell>
        <mxCell id="KkfzX8fpV3jdtidmpUQG-13" value="Holding" style="rhombus;whiteSpace=wrap;html=1;" vertex="1" parent="WIyWlLk6GJQsqaUBKTNV-1">
          <mxGeometry x="260" y="470" width="80" height="80" as="geometry" />
        </mxCell>
        <mxCell id="KkfzX8fpV3jdtidmpUQG-25" value="" style="edgeStyle=orthogonalEdgeStyle;rounded=0;orthogonalLoop=1;jettySize=auto;html=1;" edge="1" parent="WIyWlLk6GJQsqaUBKTNV-1" source="KkfzX8fpV3jdtidmpUQG-14" target="KkfzX8fpV3jdtidmpUQG-24">
          <mxGeometry relative="1" as="geometry" />
        </mxCell>
        <mxCell id="KkfzX8fpV3jdtidmpUQG-14" value="Increase gravity" style="whiteSpace=wrap;html=1;" vertex="1" parent="WIyWlLk6GJQsqaUBKTNV-1">
          <mxGeometry x="240" y="580" width="120" height="60" as="geometry" />
        </mxCell>
        <mxCell id="KkfzX8fpV3jdtidmpUQG-17" value="No" style="text;html=1;align=center;verticalAlign=middle;resizable=0;points=[];autosize=1;strokeColor=none;fillColor=none;" vertex="1" parent="WIyWlLk6GJQsqaUBKTNV-1">
          <mxGeometry x="305" y="550" width="30" height="20" as="geometry" />
        </mxCell>
        <mxCell id="KkfzX8fpV3jdtidmpUQG-19" value="Yes" style="text;html=1;align=center;verticalAlign=middle;resizable=0;points=[];autosize=1;strokeColor=none;fillColor=none;" vertex="1" parent="WIyWlLk6GJQsqaUBKTNV-1">
          <mxGeometry x="320" y="460" width="40" height="20" as="geometry" />
        </mxCell>
        <mxCell id="KkfzX8fpV3jdtidmpUQG-24" value="End" style="rounded=1;whiteSpace=wrap;html=1;arcSize=50;" vertex="1" parent="WIyWlLk6GJQsqaUBKTNV-1">
          <mxGeometry x="240" y="670" width="120" height="60" as="geometry" />
        </mxCell>
      </root>
    </mxGraphModel>
  </diagram>
</mxfile>
